<svg width="218" height="255" viewBox="0 0 218 255" fill="none" xmlns="http://www.w3.org/2000/svg">
<path d="M36.5535 223.989C44.9158 223.989 51.7085 230.926 51.7085 239.448C51.7085 247.984 44.9158 254.906 36.5535 254.906H16.8926C12.5626 254.906 8.395 253.151 5.33694 250.022C3.8257 248.491 2.62316 246.659 1.80042 244.634C0.97768 242.608 0.551432 240.431 0.546875 238.23V16.3593C0.546875 12.0416 2.22475 7.908 5.21516 4.85025C8.19203 1.80666 12.2514 0.09375 16.4867 0.09375H37.5548C45.9172 0.09375 52.7098 7.01616 52.7098 15.5524C52.7098 19.6577 51.0996 23.579 48.2581 26.481C45.4165 29.3689 41.5601 31.011 37.5548 31.011H32.8866V223.989H36.5535ZM201.229 61.8716C211.77 80.8127 217.047 102.005 217.047 125.447C217.047 148.89 211.702 170.082 201.053 189.037C190.404 207.992 178.564 222.517 159.12 235.668C141.258 247.757 122.612 254.892 99.4874 254.892H91.8152C83.4529 254.892 76.6602 247.97 76.6602 239.433C76.6602 230.897 83.4529 223.989 91.8152 223.989H101.152C117.525 223.989 129.418 216.897 142.774 208.842C156.116 200.801 164.667 187.622 172.407 173.409C180.161 159.21 184.044 143.341 184.044 125.815C184.031 108.049 180.107 92.0669 172.245 77.854C164.59 63.8556 153.488 52.2602 140.095 44.2754C126.509 36.1073 111.408 32.0161 94.8056 32.0161H90.7868C82.4245 32.0161 75.6318 25.1078 75.6318 16.5716C75.6318 12.4663 77.242 8.53088 80.0836 5.643C82.9251 2.74097 86.768 1.113 90.7868 1.113H95.5092C118.404 1.113 139.107 6.49237 157.618 17.2794C175.779 27.6914 190.863 43.1148 201.229 61.8716Z" fill="url(#paint0_linear_101_3)"/>
<defs>
<linearGradient id="paint0_linear_101_3" x1="108.797" y1="0.09375" x2="108.797" y2="254.906" gradientUnits="userSpaceOnUse">
<stop offset="0.234375" stop-color="#14DDAB"/>
<stop offset="0.640625" stop-color="#880BEB" stop-opacity="0.71"/>
<stop offset="0.9998" stop-color="#F5B614" stop-opacity="0.73"/>
<stop offset="0.9999" stop-color="#FF5C00"/>
<stop offset="1" stop-color="#00FABC" stop-opacity="0"/>
</linearGradient>
</defs>
</svg>
